<svg width="17" height="17" viewBox="0 0 17 17" fill="none" xmlns="http://www.w3.org/2000/svg">
<path d="M10.9767 12.3718C10.7392 12.3721 10.5061 12.3046 10.3024 12.1767C9.79651 11.8491 9.15725 11.8491 8.65138 12.1767C8.23486 12.4319 7.71922 12.4319 7.3027 12.1767C6.79684 11.8491 6.15757 11.8491 5.65171 12.1767C5.44801 12.3046 5.2149 12.3721 4.97737 12.3718C4.81171 12.3718 4.6774 12.5124 4.6774 12.6859C4.6774 12.8594 4.81171 13 4.97737 13C5.32402 13.0004 5.6642 12.9015 5.96105 12.7141C6.27768 12.5104 6.67673 12.5104 6.99336 12.7141C7.60047 13.0883 8.35361 13.0883 8.96072 12.7141C9.27735 12.5104 9.6764 12.5104 9.99303 12.7141C10.2899 12.9015 10.6301 13.0004 10.9767 13C11.1424 13 11.2767 12.8594 11.2767 12.6859C11.2767 12.5124 11.1424 12.3718 10.9767 12.3718ZM11.8503 4.64943C11.2605 3.22153 9.99343 2.22675 8.51912 2.03423C6.22012 1.73398 4.12401 3.44211 3.83726 5.84938C3.13026 6.02513 2.53812 6.52833 2.22838 7.21665C1.66616 8.46606 2.1777 9.95618 3.3709 10.5449C3.41137 10.5651 3.4556 10.5755 3.50038 10.5756C3.61602 10.5756 3.7214 10.5061 3.77124 10.3968C3.84264 10.2403 3.77933 10.0528 3.62986 9.978C3.00081 9.67073 2.5992 9.00921 2.60048 8.28236C2.60623 7.34498 3.26808 6.55399 4.1548 6.42481C4.29549 6.40445 4.40332 6.28364 4.41317 6.13525C4.50856 4.68044 5.39777 3.4142 6.69548 2.88516C8.54571 2.13086 10.6296 3.08994 11.3499 5.02732C11.3859 5.12272 11.4639 5.19388 11.5591 5.21811C12.1481 5.36473 12.6622 5.73964 12.9978 6.26726C13.7307 7.41952 13.4328 8.97566 12.3324 9.74308C12.1949 9.83962 12.1582 10.0346 12.2504 10.1786C12.3426 10.3227 12.5288 10.3611 12.6664 10.2645C13.2507 9.85657 13.6795 9.2464 13.8776 8.54083C14.344 6.88005 13.4364 5.13779 11.8503 4.64943ZM10.9767 9.85902C10.7392 9.85929 10.5061 9.79185 10.3024 9.66394C9.79651 9.33635 9.15725 9.33635 8.65138 9.66394C8.23486 9.91914 7.71922 9.91914 7.3027 9.66394C6.79684 9.33635 6.15757 9.33635 5.65171 9.66394C5.44801 9.79185 5.2149 9.85929 4.97737 9.85902C4.81171 9.85902 4.6774 9.99966 4.6774 10.1731C4.6774 10.3466 4.81171 10.4872 4.97737 10.4872C5.32402 10.4876 5.6642 10.3888 5.96105 10.2013C6.27768 9.99767 6.67673 9.99767 6.99336 10.2013C7.60047 10.5756 8.35361 10.5756 8.96072 10.2013C9.27735 9.99767 9.6764 9.99767 9.99303 10.2013C10.2899 10.3888 10.6301 10.4876 10.9767 10.4872C11.1424 10.4872 11.2767 10.3466 11.2767 10.1731C11.2767 9.99966 11.1424 9.85902 10.9767 9.85902Z" fill="white"/>
</svg>
