<svg width="17" height="17" viewBox="0 0 17 17" fill="none" xmlns="http://www.w3.org/2000/svg">
<path d="M11.8345 4.79063C11.9552 4.66992 12.1515 4.66992 12.2722 4.79063C12.3929 4.91135 12.3929 5.10696 12.2722 5.22829L11.5956 5.90491C11.4748 6.02562 11.2786 6.02562 11.1579 5.90491C11.0372 5.78419 11.0372 5.58796 11.1579 5.46724L11.8345 4.79063ZM2.36752 14.8686C2.19667 14.8686 2.058 14.7299 2.058 14.5591C2.058 14.3882 2.19667 14.2496 2.36752 14.2496H11.3405C11.5114 14.2496 11.65 14.3882 11.65 14.5591C11.65 14.7299 11.5114 14.8686 11.3405 14.8686H2.36752ZM1.30958 12.8864C1.13873 12.8864 1.00006 12.7478 1.00006 12.5769C1.00006 12.4061 1.13873 12.2674 1.30958 12.2674H13.8965C14.0674 12.2674 14.206 12.4061 14.206 12.5769C14.206 12.7478 14.0674 12.8864 13.8965 12.8864H1.30958ZM7.60336 7.90007C7.43251 7.90007 7.29384 7.76141 7.29384 7.59055C7.29384 7.4197 7.43251 7.28103 7.60336 7.28103C8.20507 7.28103 8.74921 7.52493 9.14353 7.91926C9.53786 8.31359 9.78115 8.85773 9.78115 9.45943C9.78115 9.63029 9.64248 9.76895 9.47163 9.76895C9.30077 9.76895 9.16211 9.63029 9.16211 9.45943C9.16211 9.02858 8.98754 8.63921 8.70587 8.35692C8.42359 8.07464 8.03421 7.90069 7.60336 7.90069V7.90007ZM4.41469 10.7204C4.47721 10.8795 4.39921 11.059 4.24074 11.1216C4.08164 11.1841 3.90212 11.1067 3.8396 10.9476C3.74798 10.7161 3.67679 10.4722 3.62851 10.2171C3.58146 9.9689 3.5567 9.7151 3.5567 9.45881C3.5567 8.34145 4.00983 7.32994 4.74216 6.59761C5.47448 5.86529 6.48599 5.41215 7.60336 5.41215C8.72073 5.41215 9.73224 5.86529 10.4646 6.59761C11.1969 7.32994 11.65 8.34145 11.65 9.45881C11.65 9.7151 11.6253 9.9689 11.5782 10.2171C11.5299 10.4722 11.4587 10.7161 11.3671 10.9476C11.304 11.1067 11.1245 11.1841 10.966 11.1216C10.8069 11.0584 10.7289 10.8789 10.792 10.7204C10.8713 10.5211 10.9319 10.3143 10.9716 10.1039C11.0106 9.89771 11.031 9.68229 11.031 9.45943C11.031 8.51292 10.6472 7.65617 10.0269 7.03527C9.40663 6.41499 8.54926 6.03119 7.60274 6.03119C6.65623 6.03119 5.79886 6.41499 5.17858 7.03527C4.5583 7.65555 4.1745 8.51292 4.1745 9.45943C4.1745 9.68229 4.19493 9.89771 4.23393 10.1039C4.27416 10.3149 4.33421 10.5211 4.41345 10.7204H4.41469ZM2.93456 5.22768C2.81385 5.10696 2.81385 4.91073 2.93456 4.79001C3.05527 4.6693 3.25089 4.6693 3.37222 4.79001L4.04883 5.46662C4.16955 5.58734 4.16955 5.78357 4.04883 5.90429C3.92812 6.025 3.73189 6.025 3.61117 5.90429L2.93456 5.22768ZM7.29384 2.30952C7.29384 2.13866 7.43251 2 7.60336 2C7.77422 2 7.91288 2.13866 7.91288 2.30952V4.12207C7.91288 4.29292 7.77422 4.43159 7.60336 4.43159C7.43251 4.43159 7.29384 4.29292 7.29384 4.12207V2.30952Z" fill="white"/>
</svg>
