<svg width="17" height="17" viewBox="0 0 17 17" fill="none" xmlns="http://www.w3.org/2000/svg">
<path d="M8.00025 11.4321C6.10798 11.4321 4.56829 9.89235 4.56829 8C4.56829 6.10765 6.10798 4.5679 8.00025 4.5679C9.89252 4.5679 11.4322 6.10765 11.4322 8C11.4322 9.89235 9.89276 11.4321 8.00025 11.4321ZM8.00025 5.16049C7.43867 5.16049 6.8897 5.32703 6.42277 5.63904C5.95583 5.95105 5.5919 6.39452 5.37699 6.91337C5.16209 7.43222 5.10586 8.00315 5.21542 8.55396C5.32497 9.10477 5.5954 9.61072 5.9925 10.0078C6.38959 10.4049 6.89552 10.6754 7.44631 10.7849C7.9971 10.8945 8.568 10.8383 9.08683 10.6234C9.60567 10.4084 10.0491 10.0445 10.3611 9.57755C10.6731 9.11059 10.8396 8.5616 10.8396 8C10.8388 7.24718 10.5394 6.52543 10.0071 5.9931C9.47476 5.46078 8.75304 5.16134 8.00025 5.16049ZM8.00321 11.7326C8.08179 11.7326 8.15715 11.7638 8.21271 11.8194C8.26828 11.8749 8.29949 11.9503 8.29949 12.0289L8.29653 13.7037C8.29653 13.7823 8.26532 13.8576 8.20975 13.9132C8.15419 13.9688 8.07883 14 8.00025 14C7.92167 14 7.84631 13.9688 7.79074 13.9132C7.73518 13.8576 7.70396 13.7823 7.70396 13.7037L7.70668 12.0289C7.70668 11.99 7.71435 11.9514 7.72926 11.9154C7.74416 11.8795 7.76601 11.8468 7.79355 11.8193C7.82108 11.7918 7.85378 11.77 7.88975 11.7551C7.92573 11.7402 7.96428 11.7326 8.00321 11.7326ZM4.26781 8.00321C4.26781 8.08179 4.23659 8.15716 4.18103 8.21272C4.12546 8.26829 4.0501 8.29951 3.97152 8.29951L2.29628 8.2963C2.2177 8.2963 2.14234 8.26508 2.08678 8.20951C2.03122 8.15395 2 8.07858 2 8C2 7.92142 2.03122 7.84605 2.08678 7.79049C2.14234 7.73492 2.2177 7.7037 2.29628 7.7037L3.973 7.70642C4.05141 7.70681 4.12647 7.73827 4.18173 7.7939C4.23698 7.84953 4.26794 7.9248 4.26781 8.00321ZM7.99753 4.26741C7.91895 4.26741 7.84359 4.23619 7.78803 4.18062C7.73246 4.12506 7.70125 4.04969 7.70125 3.97111L7.70396 2.2963C7.70396 2.21771 7.73518 2.14235 7.79074 2.08678C7.84631 2.03122 7.92167 2 8.00025 2C8.07883 2 8.15419 2.03122 8.20975 2.08678C8.26532 2.14235 8.29653 2.21771 8.29653 2.2963L8.29382 3.97161C8.29368 4.0501 8.26241 4.12534 8.20686 4.1808C8.15131 4.23626 8.07603 4.26741 7.99753 4.26741ZM13.7037 8.2963L12.029 8.29358C11.9504 8.29358 11.875 8.26236 11.8195 8.2068C11.7639 8.15123 11.7327 8.07587 11.7327 7.99728C11.7327 7.9187 11.7639 7.84334 11.8195 7.78777C11.875 7.7322 11.9504 7.70099 12.029 7.70099L13.7037 7.7037C13.7823 7.7037 13.8577 7.73492 13.9132 7.79049C13.9688 7.84605 14 7.92142 14 8C14 8.07858 13.9688 8.15395 13.9132 8.20951C13.8577 8.26508 13.7823 8.2963 13.7037 8.2963Z" fill="white"/>
<path d="M4.94283 10.6385C4.97039 10.611 5.00311 10.5891 5.03912 10.5742C5.07513 10.5593 5.11372 10.5516 5.1527 10.5516C5.19167 10.5516 5.23027 10.5593 5.26628 10.5742C5.30229 10.5891 5.33501 10.611 5.36257 10.6385C5.39013 10.6661 5.41199 10.6988 5.4269 10.7348C5.44182 10.7708 5.4495 10.8094 5.4495 10.8484C5.4495 10.8874 5.44182 10.926 5.4269 10.962C5.41199 10.998 5.39013 11.0307 5.36257 11.0583L4.18113 12.2385C4.12547 12.2942 4.04998 12.3255 3.97126 12.3255C3.89255 12.3255 3.81706 12.2942 3.7614 12.2385C3.70574 12.1829 3.67447 12.1074 3.67447 12.0286C3.67447 11.9499 3.70574 11.8744 3.7614 11.8188L4.94283 10.6385ZM4.94283 5.36148L3.76214 4.1805C3.70648 4.12483 3.67521 4.04934 3.67521 3.97062C3.67521 3.8919 3.70648 3.81641 3.76214 3.76074C3.8178 3.70508 3.89329 3.67381 3.97201 3.67381C4.05072 3.67381 4.12621 3.70508 4.18187 3.76074L5.36257 4.94173C5.41823 4.99739 5.4495 5.07289 5.4495 5.15161C5.4495 5.23033 5.41823 5.30582 5.36257 5.36148C5.30691 5.41715 5.23141 5.44842 5.1527 5.44842C5.07398 5.44842 4.99849 5.41715 4.94283 5.36148ZM11.0579 5.36149C11.0022 5.41715 10.9267 5.44842 10.848 5.44842C10.7693 5.44842 10.6938 5.41715 10.6382 5.36149C10.5825 5.30582 10.5512 5.23033 10.5512 5.15161C10.5512 5.07289 10.5825 4.9974 10.6382 4.94173L11.8188 3.76074C11.8745 3.70508 11.95 3.67381 12.0287 3.67381C12.1074 3.67381 12.1829 3.70508 12.2386 3.76074C12.2942 3.81641 12.3255 3.8919 12.3255 3.97062C12.3255 4.04934 12.2942 4.12483 12.2386 4.1805L11.0579 5.36149ZM10.8483 10.5519C10.8872 10.5518 10.9257 10.5595 10.9617 10.5743C10.9977 10.5892 11.0304 10.611 11.0579 10.6385L12.2386 11.8195C12.2942 11.8752 12.3255 11.9507 12.3255 12.0294C12.3255 12.1081 12.2942 12.1836 12.2386 12.2393C12.1829 12.2949 12.1074 12.3262 12.0287 12.3262C11.95 12.3262 11.8745 12.2949 11.8188 12.2393L10.6394 11.0575C10.5979 11.0161 10.5696 10.9633 10.5582 10.9058C10.5467 10.8483 10.5526 10.7887 10.5751 10.7345C10.5975 10.6803 10.6355 10.634 10.6843 10.6015C10.733 10.5689 10.7896 10.5518 10.8483 10.5519ZM8.20418 8.79877C8.15231 8.85063 8.08305 8.8814 8.00981 8.88514C7.93656 8.88888 7.86453 8.86532 7.80765 8.81902C7.79983 8.81265 7.79233 8.80589 7.78518 8.79877L6.60005 7.61358C6.54439 7.55792 6.51312 7.48243 6.51312 7.40371C6.51312 7.32499 6.54439 7.24949 6.60005 7.19383C6.65571 7.13817 6.7312 7.1069 6.80991 7.1069C6.88863 7.1069 6.96412 7.13817 7.01978 7.19383L7.99456 8.16864L8.96933 7.19383C9.02499 7.13817 9.10048 7.1069 9.1792 7.1069C9.25792 7.1069 9.33341 7.13817 9.38907 7.19383C9.44473 7.24949 9.476 7.32499 9.476 7.40371C9.476 7.48243 9.44473 7.55792 9.38907 7.61358L8.20418 8.79877Z" fill="white"/>
</svg>
