<svg width="17" height="17" viewBox="0 0 17 17" fill="none" xmlns="http://www.w3.org/2000/svg">
<path d="M7.99971 3.99588C10.2074 3.99588 12.0037 5.79226 12.0037 8C12.0037 10.2077 10.2074 12.0041 7.99971 12.0041C5.79207 12.0041 3.99576 10.2077 3.99576 8C3.99576 5.79226 5.79178 3.99588 7.99971 3.99588ZM7.99971 11.3128C8.65489 11.3128 9.29535 11.1185 9.84011 10.7545C10.3849 10.3904 10.8094 9.87306 11.0602 9.26774C11.3109 8.66241 11.3765 7.99632 11.2487 7.35371C11.1209 6.7111 10.8054 6.12082 10.3421 5.65753C9.87881 5.19423 9.28856 4.87872 8.64597 4.7509C8.00339 4.62307 7.33733 4.68868 6.73203 4.93941C6.12672 5.19015 5.60936 5.61475 5.24537 6.15953C4.88137 6.70431 4.68709 7.3448 4.68709 8C4.68808 8.87829 5.03741 9.72033 5.65843 10.3414C6.27945 10.9624 7.12145 11.3118 7.99971 11.3128ZM7.99625 3.64531C7.90458 3.64531 7.81666 3.60889 7.75183 3.54406C7.68701 3.47923 7.65059 3.39131 7.65059 3.29963L7.65405 1.34568C7.65405 1.254 7.69046 1.16607 7.75529 1.10125C7.82011 1.03642 7.90804 1 7.99971 1C8.09139 1 8.17931 1.03642 8.24413 1.10125C8.30896 1.16607 8.34538 1.254 8.34538 1.34568L8.34221 3.29963C8.34221 3.34505 8.33326 3.39002 8.31587 3.43198C8.29848 3.47394 8.27299 3.51206 8.24086 3.54416C8.20873 3.57627 8.17059 3.60172 8.12862 3.61908C8.08665 3.63643 8.04167 3.64535 7.99625 3.64531ZM12.3542 7.99625C12.3542 7.90458 12.3906 7.81665 12.4555 7.75182C12.5203 7.687 12.6082 7.65058 12.6999 7.65058L14.6543 7.65432C14.746 7.65432 14.8339 7.69074 14.8988 7.75557C14.9636 7.8204 15 7.90832 15 8C15 8.09168 14.9636 8.1796 14.8988 8.24443C14.8339 8.30926 14.746 8.34568 14.6543 8.34568L12.6982 8.34251C12.6067 8.34205 12.5191 8.30535 12.4547 8.24045C12.3902 8.17555 12.3541 8.08774 12.3542 7.99625ZM8.00288 12.3547C8.09456 12.3547 8.18248 12.3911 8.2473 12.4559C8.31213 12.5208 8.34855 12.6087 8.34855 12.7004L8.34538 14.6543C8.34538 14.746 8.30896 14.8339 8.24413 14.8988C8.17931 14.9636 8.09139 15 7.99971 15C7.90804 15 7.82011 14.9636 7.75529 14.8988C7.69046 14.8339 7.65405 14.746 7.65405 14.6543L7.65722 12.6998C7.65737 12.6082 7.69385 12.5204 7.75866 12.4557C7.82347 12.391 7.9113 12.3547 8.00288 12.3547ZM1.34566 7.65432L3.29953 7.65749C3.39121 7.65749 3.47913 7.69391 3.54396 7.75874C3.60878 7.82356 3.6452 7.91149 3.6452 8.00317C3.6452 8.09485 3.60878 8.18277 3.54396 8.2476C3.47913 8.31243 3.39121 8.34885 3.29953 8.34885L1.34566 8.34568C1.25399 8.34568 1.16607 8.30926 1.10124 8.24443C1.03642 8.1796 1 8.09168 1 8C1 7.90832 1.03642 7.8204 1.10124 7.75557C1.16607 7.69074 1.25399 7.65432 1.34566 7.65432Z" fill="white"/>
<path d="M11.5667 4.92172C11.5345 4.95388 11.4964 4.97939 11.4544 4.99679C11.4123 5.01419 11.3673 5.02315 11.3219 5.02315C11.2764 5.02315 11.2314 5.01419 11.1893 4.99679C11.1473 4.97939 11.1092 4.95388 11.077 4.92172C11.0449 4.88957 11.0193 4.8514 11.0019 4.80938C10.9845 4.76737 10.9756 4.72234 10.9756 4.67687C10.9756 4.63139 10.9845 4.58637 11.0019 4.54435C11.0193 4.50234 11.0449 4.46417 11.077 4.43201L12.4553 3.05506C12.5203 2.99012 12.6084 2.95364 12.7002 2.95364C12.792 2.95364 12.8801 2.99012 12.945 3.05506C13.01 3.12 13.0465 3.20808 13.0465 3.29991C13.0465 3.39175 13.01 3.47983 12.945 3.54477L11.5667 4.92172ZM11.5667 11.0783L12.9442 12.4561C13.0091 12.521 13.0456 12.6091 13.0456 12.7009C13.0456 12.7928 13.0091 12.8809 12.9442 12.9458C12.8792 13.0107 12.7912 13.0472 12.6993 13.0472C12.6075 13.0472 12.5194 13.0107 12.4545 12.9458L11.077 11.568C11.0121 11.503 10.9756 11.415 10.9756 11.3231C10.9756 11.2313 11.0121 11.1432 11.077 11.0783C11.1419 11.0133 11.23 10.9768 11.3219 10.9768C11.4137 10.9768 11.5018 11.0133 11.5667 11.0783ZM4.43246 11.0783C4.4974 11.0133 4.58547 10.9768 4.67731 10.9768C4.76914 10.9768 4.85722 11.0133 4.92216 11.0783C4.98709 11.1432 5.02357 11.2313 5.02357 11.3231C5.02357 11.415 4.98709 11.503 4.92216 11.568L3.54468 12.9458C3.47974 13.0107 3.39167 13.0472 3.29984 13.0472C3.208 13.0472 3.11993 13.0107 3.05499 12.9458C2.99005 12.8809 2.95357 12.7928 2.95357 12.7009C2.95357 12.6091 2.99005 12.521 3.05499 12.4561L4.43246 11.0783ZM4.67702 5.02284C4.63161 5.02287 4.58665 5.01396 4.54468 4.99661C4.50272 4.97926 4.46459 4.95382 4.43246 4.92172L3.05499 3.54391C2.99005 3.47897 2.95357 3.39089 2.95357 3.29905C2.95357 3.20721 2.99005 3.11913 3.05499 3.05419C3.11993 2.98925 3.208 2.95277 3.29984 2.95277C3.39167 2.95277 3.47974 2.98925 3.54468 3.05419L4.92072 4.43288C4.96911 4.48122 5.00208 4.54284 5.01544 4.60993C5.0288 4.67702 5.02195 4.74657 4.99577 4.80977C4.96958 4.87297 4.92524 4.92697 4.86834 4.96495C4.81145 5.00293 4.74456 5.02318 4.67616 5.02312L4.67702 5.02284ZM7.76179 7.0681C7.8223 7.0076 7.9031 6.9717 7.98856 6.96734C8.07401 6.96297 8.15805 6.99046 8.22441 7.04448C8.23354 7.05191 8.24229 7.05979 8.25062 7.0681L9.63328 8.45082C9.69822 8.51576 9.7347 8.60384 9.7347 8.69568C9.7347 8.78751 9.69822 8.87559 9.63328 8.94053C9.56834 9.00547 9.48027 9.04195 9.38843 9.04195C9.2966 9.04195 9.20852 9.00547 9.14359 8.94053L8.00635 7.80325L6.86911 8.94053C6.80418 9.00547 6.7161 9.04195 6.62427 9.04195C6.53243 9.04195 6.44436 9.00547 6.37942 8.94053C6.31448 8.87559 6.278 8.78751 6.278 8.69568C6.278 8.60384 6.31448 8.51576 6.37942 8.45082L7.76179 7.0681Z" fill="white"/>
</svg>
