<svg width="17" height="17" viewBox="0 0 17 17" fill="none" xmlns="http://www.w3.org/2000/svg">
<path d="M7.72222 12.4449H5.5C5.3466 12.4449 5.22222 12.5692 5.22222 12.7225C5.22222 12.8757 5.3466 13 5.5 13H7.72222C7.87562 13 8 12.8757 8 12.7225C8 12.5692 7.87562 12.4449 7.72222 12.4449ZM12.7222 10.2247H11.3439C11.9412 9.54395 12.3223 8.69422 12.4189 7.78276C12.4235 7.73977 12.418 7.69627 12.4027 7.65579C12.3487 7.51242 12.1886 7.43992 12.0451 7.49385C11.6402 7.64718 11.2108 7.72612 10.7778 7.72693C10.5103 7.72741 10.2436 7.69814 9.98256 7.63966C8.04001 7.20443 6.81839 5.27822 7.25401 3.33741C7.26324 3.2955 7.26259 3.252 7.25215 3.2104C7.21488 3.06157 7.06389 2.97112 6.91493 3.00838C6.00469 3.23655 5.19021 3.747 4.58844 4.4665C3.16785 6.16501 3.24024 8.60956 4.65432 10.2247H3.27778C3.12438 10.2247 3 10.349 3 10.5022C3 10.6555 3.12438 10.7798 3.27778 10.7798H12.7222C12.8756 10.7798 13 10.6555 13 10.5022C13 10.349 12.8756 10.2247 12.7222 10.2247ZM5.42974 10.2247C4.94936 9.80244 4.58078 9.26819 4.35685 8.66936C3.60594 6.6616 4.62628 4.42585 6.6358 3.67565C6.61939 3.82288 6.61115 3.9709 6.61111 4.11905C6.61362 6.41714 8.47763 8.27949 10.7778 8.28199C11.1215 8.28182 11.4638 8.23846 11.7967 8.15299C11.6175 8.95688 11.1863 9.68269 10.5656 10.2247H5.42974ZM10.5 12.4449H9.38889C9.23549 12.4449 9.11111 12.5692 9.11111 12.7225C9.11111 12.8757 9.23549 13 9.38889 13H10.5C10.6534 13 10.7778 12.8757 10.7778 12.7225C10.7778 12.5692 10.6534 12.4449 10.5 12.4449Z" fill="white"/>
</svg>
