<svg width="117" height="24" viewBox="0 0 117 24" fill="none" xmlns="http://www.w3.org/2000/svg">
<path d="M107.43 19.691C104.785 19.691 102.65 17.5421 102.65 14.9245C102.65 12.2873 104.785 10.158 107.43 10.158C110.055 10.158 112.21 12.3069 112.21 14.9245C112.21 17.5421 110.074 19.691 107.43 19.691ZM89.9753 19.691C87.3307 19.691 85.1954 17.5421 85.1954 14.9245C85.1954 12.2873 87.3307 10.158 89.9753 10.158C92.6199 10.158 94.7551 12.3069 94.7551 14.9245C94.7551 17.5421 92.6199 19.691 89.9753 19.691ZM72.5405 19.691C71.2476 19.691 70.0526 19.1831 69.1319 18.2649C68.2308 17.3468 67.741 16.1356 67.7606 14.8464C67.7998 12.3459 69.9546 10.1776 72.4621 10.158H72.5405C73.8138 10.158 74.9892 10.6464 75.8903 11.5255C76.811 12.4241 77.3204 13.6352 77.3204 14.9245C77.3204 17.5421 75.1655 19.691 72.5405 19.691ZM51.031 13.0687C51.7754 11.291 53.4993 10.158 55.4387 10.158C57.3781 10.158 59.102 11.3106 59.8268 13.0882L51.031 13.0687ZM26.2305 19.691C23.5859 19.691 21.4507 17.5421 21.4507 14.9245C21.4507 12.2873 23.6055 10.158 26.2305 10.158C28.8556 10.158 31.0104 12.3069 31.0104 14.9245C31.0104 17.5421 28.8751 19.691 26.2305 19.691ZM8.77616 19.691C6.13156 19.691 3.99629 17.5421 3.99629 14.9245C3.99629 12.2873 6.15115 10.158 8.77616 10.158C11.4208 10.158 13.556 12.3069 13.556 14.9245C13.556 17.5421 11.4208 19.691 8.77616 19.691ZM107.43 6.21203C102.611 6.21203 98.6927 10.119 98.6927 14.905C98.6927 10.0994 94.7747 6.21203 89.9753 6.21203C85.1758 6.21203 81.2579 10.0994 81.2383 14.8854L81.2579 1.13301C81.2579 0.507902 80.7485 0 80.1217 0H78.4174C77.7905 0 77.2812 0.507902 77.2812 1.13301L77.2616 7.61853L77.0461 7.48178C74.519 5.91901 71.3847 5.78227 68.6421 7.07156C66.213 8.24364 64.4695 10.5097 63.9406 13.1664C63.588 11.4473 62.7261 9.86502 61.4331 8.61479C59.7093 6.95435 57.4369 6.09482 55.0469 6.19249C52.8921 6.27063 50.9135 7.16923 49.4247 8.57573C47.7008 6.8176 45.3109 5.95808 42.7838 6.17296C41.3929 6.29017 40.0217 6.87621 38.7875 7.83341V7.38411C38.7875 6.83714 38.3565 6.40738 37.808 6.40738H35.9078C35.3593 6.40738 34.9088 6.85667 34.9088 7.40365V14.7096C34.8108 9.98222 30.9516 6.17296 26.1914 6.17296C21.3723 6.17296 17.4544 10.0799 17.4544 14.8659C17.4544 10.0604 13.5364 6.17296 8.73698 6.17296C3.91793 6.17296 0 10.0799 0 14.8659C0 19.6714 3.91793 23.5588 8.73698 23.5588C13.5364 23.5588 17.4544 19.6519 17.4544 14.8659C17.4544 19.6714 21.3723 23.5588 26.1914 23.5588C30.9516 23.5588 34.8108 19.7496 34.9088 15.0222V22.543C34.9088 23.09 35.3397 23.5198 35.8882 23.5198H37.7884C38.3369 23.5198 38.7875 23.0705 38.7875 22.5235L38.8659 14.651C38.8659 12.1896 40.5898 10.2752 43.058 10.0213C44.6252 9.86502 46.1728 10.4706 47.1915 11.6427L47.2502 11.7208C46.8584 12.678 46.643 13.7133 46.643 14.7878C46.6038 19.2612 49.934 23.0119 54.4005 23.5002L54.8706 23.5393C55.1253 23.5588 55.3995 23.5588 55.6738 23.5588C55.7717 23.5588 55.8697 23.5588 55.9676 23.5588C58.2204 23.5002 60.1206 22.8556 61.5899 21.664L61.6094 21.6444L61.6682 21.6054L62.2755 21.0584C62.4518 20.9021 62.5302 20.6872 62.5106 20.4528C62.491 20.2184 62.3343 20.0035 62.1188 19.8863L59.8856 18.6556C59.5917 18.4798 59.2979 18.5189 58.9844 18.7142L58.5731 18.9877C57.8286 19.437 56.9275 19.6714 56.0068 19.7105H55.7913C55.3604 19.7105 54.9294 19.6714 54.518 19.5933C53.088 19.3198 51.893 18.4212 51.2073 17.1319L50.9919 16.624H63.9798C64.2932 18.1477 64.9985 19.5738 66.0955 20.7654C67.741 22.5821 70.1114 23.6174 72.5601 23.6174C77.3595 23.6174 81.2775 19.7105 81.2775 14.9245C81.2775 19.7105 85.1954 23.6174 90.0144 23.6174C94.8335 23.6174 98.7318 19.7105 98.7318 14.9245C98.7318 19.73 102.65 23.6174 107.469 23.6174C112.288 23.6174 116.186 19.7105 116.186 14.9245C116.167 10.119 112.249 6.21203 107.43 6.21203Z" fill="#ED1C24"/>
</svg>
